<?xml version="1.0" encoding="utf-8"?>
<!-- Generator: Adobe Illustrator 20.0.0, SVG Export Plug-In . SVG Version: 6.00 Build 0)  -->
<svg version="1.1" id="Layer_1" xmlns="http://www.w3.org/2000/svg" xmlns:xlink="http://www.w3.org/1999/xlink" x="0px" y="0px"
	 viewBox="0 0 302.3 417.9" style="enable-background:new 0 0 302.3 417.9;" xml:space="preserve">
<style type="text/css">
	.st0{fill-rule:evenodd;clip-rule:evenodd;}
</style>
<path class="st0" d="M18.7,1.5c0,0-17.1-0.9-17.9-0.2s-0.6,4-0.6,4s0.4,27.5,0.3,28c-0.1,0.4,0.4,21.4,0.3,22.3
	C0.8,56.6,0.7,74.7,0.6,75s-0.7,22.6-0.2,24.2c0.6,1.7-0.3,5.5-0.3,7.1c-0.1,1.7,0.3,10.1,0.5,12c0.2,1.8-0.8,8.1-0.8,9.5
	s0.1,10.9,0.3,12.6s0.6,22.9,0.5,23.6c-0.1,0.7,0.2,3,0.2,3.2S1,207.2,1,207.2l0.2,33.5c0,0,0,30-0.2,31s-0.4,44.2-0.3,44.6
	c0,0.4-0.3,28.4,0.3,29.4s-0.3,27.8-0.3,27.8s0.1,28.2,0,29.3s-1.1,12.2,0,13.3c1.5,0.7,18.5,0.5,22.6,0c4.1-0.5,12-1.1,13.6-1.1
	c1.6,0,9.2,0.5,11.2,0.6s6.4,0.9,7.3,0.8c0.9-0.1,6.7,0.4,8.2,0.2c1.5-0.2,15-0.9,15.8-0.8c0.8,0.1,19.2,0.2,19.7,0.2
	c0.5,0,21.2-0.2,22.6-0.2s33.8-0.3,35.7,0c1.9,0.3,12.3,1.2,13.9,1.3c1.6,0,27.1-0.2,32.2-0.5s21.9-0.8,22.5-0.8
	c0.6,0,39.9,0.3,40.4,0.3s13.8-0.4,14.9-0.3c1,0.1,15.9,0.8,17,0.8c1,0,3.6,1,3.9-0.6s-1.5-7.5-1.6-9.7s-0.5-25.2-0.2-27
	c0.4-1.8,1.3-18,1.3-19.2c0-1.3-0.8-28.6-1-29.9s-0.3-26.5-0.2-28.6s0.6-29.3,0.6-30.2c0.1-1,0.2-35.8,0-37.5s-1-24.2-1-24.9
	c0-0.7,1.8-27.3,1.8-29.6c0-2.3-0.2-35.9-0.3-37s-0.5-23.4-0.5-23.4s1.1-14.9,1-15.8c-0.1-0.9-1-42-1-42.8c0.1-0.8,0.5-35.1,0-38.5
	s-0.6-19.2-0.6-19.2s-0.1-1.3-2.3-1.6c-2.1-0.3-65.6,0.6-66.1,0.6c-0.5,0-75.8,0.6-77.1,0.6c-1.3,0-39.2-1-41.7-1.1
	c-2.5-0.2-45.6,0.8-43.5,0.8c2.1,0-46.8-0.6-47.7-0.5S18.7,1.5,18.7,1.5z"/>
</svg>
